<?xml version="1.0" encoding="utf-8"?>
<!-- Generator: Adobe Illustrator 23.0.2, SVG Export Plug-In . SVG Version: 6.00 Build 0)  -->
<svg version="1.1" id="Capa_1" xmlns="http://www.w3.org/2000/svg" xmlns:xlink="http://www.w3.org/1999/xlink" x="0px" y="0px"
	 viewBox="0 0 100 100" style="enable-background:new 0 0 100 100;" xml:space="preserve">
<style type="text/css">
	.st0{fill:#26262B;}
	.st1{fill:#FFFFFF;}
</style>
<rect class="st0" width="100" height="100"/>
<path class="st1" d="M67.6,65.1L52.3,49.8l15-15c0.6-0.6,0.6-1.5,0-2s-1.5-0.6-2,0l-15,15L34.9,32.4c-0.6-0.6-1.5-0.6-2,0
	c-0.6,0.6-0.6,1.5,0,2l15.3,15.3L32.4,65.5c-0.6,0.6-0.6,1.5,0,2c0.6,0.6,1.5,0.6,2,0l15.8-15.8l15.3,15.3c0.6,0.6,1.5,0.6,2,0
	C68.1,66.6,68.1,65.6,67.6,65.1L67.6,65.1z"/>
</svg>
