<?xml version="1.0" encoding="utf-8"?>
<!-- Generator: Adobe Illustrator 23.0.2, SVG Export Plug-In . SVG Version: 6.00 Build 0)  -->
<svg version="1.1" id="Capa_1" xmlns="http://www.w3.org/2000/svg" xmlns:xlink="http://www.w3.org/1999/xlink" x="0px" y="0px"
	 viewBox="0 0 16.3 25.3" style="enable-background:new 0 0 16.3 25.3;" xml:space="preserve">
<style type="text/css">
	.st0{fill:#FFFFFF;}
	.st1{opacity:0.4353;fill:#FFFFFF;}
</style>
<path class="st0" d="M8.2,5.2L8.2,5.2c-1.5,0-2.7,1.4-2.7,3.2c0,1.3,0.6,2.4,1.7,2.9c0.3,0.2,0.7,0.2,1,0.2c0.7,0,1.4-0.3,1.9-0.9
	c0.8-0.9,1-2.3,0.6-3.4C10.2,6,9.2,5.2,8.2,5.2L8.2,5.2z M8.2,19.8c-0.4,0-0.7-0.2-0.9-0.6l-3.8-7.7C2.2,8.7,2.7,5.3,4.7,3.3
	c1-1,2.2-1.5,3.5-1.5c1.3,0,2.5,0.5,3.5,1.5c2,2,2.5,5.4,1.2,8.1l-3.8,7.7C8.9,19.6,8.5,19.8,8.2,19.8z"/>
<path class="st1" d="M12,17.4c-0.1,0-0.3,0-0.4,0.1c-0.1,0.1-0.1,0.3-0.1,0.5c0,0.2,0.2,0.3,0.3,0.3c1.3,0.4,2.1,1.2,2,2
	c-0.1,1.2-1.9,2.5-5.7,2.6c-3.8,0-5.6-1.3-5.7-2.6c-0.1-0.9,0.7-1.7,2-2c0.1,0,0.3-0.2,0.3-0.3c0-0.2,0-0.4-0.1-0.5
	c-0.1-0.1-0.3-0.2-0.4-0.1c-1.7,0.5-2.7,1.7-2.6,3.1c0.1,1.6,1.9,3.4,6.4,3.4h0.2c4.5-0.1,6.2-1.9,6.4-3.4
	C14.8,19.1,13.8,17.9,12,17.4z"/>
</svg>
