<?xml version="1.0" encoding="utf-8"?>
<!-- Generator: Adobe Illustrator 23.0.2, SVG Export Plug-In . SVG Version: 6.00 Build 0)  -->
<svg version="1.1" id="Capa_1" xmlns="http://www.w3.org/2000/svg" xmlns:xlink="http://www.w3.org/1999/xlink" x="0px" y="0px"
	 viewBox="0 0 81 57.9" style="enable-background:new 0 0 81 57.9;" xml:space="preserve">
<style type="text/css">
	.st0{fill:#FFFFFF;}
</style>
<g>
	<g>
		<path class="st0" d="M61.9,34.7C61.3,34,46.6,17.9,41.2,17.9c-5.3,0-20.1,16.2-20.7,16.9l0,0c-0.1,0.1-1.5,1.7-1.5,3.6
			c0,1.5,0.1,3,0.1,3c0,0.1,0,0.7,0.4,0.9c0.1,0,0.1,0,0.2,0s0.3-0.1,0.4-0.2c0.2-0.1,15.2-13.3,21.1-13.3S62.1,42,62.3,42.1
			c0.2,0.1,0.3,0.2,0.4,0.2c0.1,0,0.1,0,0.2,0c0.4-0.2,0.4-0.8,0.4-0.9c0,0,0.1-1.5,0.1-3C63.4,36.4,62,34.8,61.9,34.7z M62.1,40.2
			c-3.9-3.3-15.4-12.7-20.9-12.7s-17,9.4-20.9,12.7c0-0.8,0-1.3,0-2c0,0-0.1-1.2,0.9-2.3c8.4-7.6,17.2-11.3,17.5-11.4
			c2.6-1.1,2.5-0.9,2.5-5.3c0,0,0.1,0,0.2,0c3.7,0.3,13.7,9.9,19.6,16.4c0,0,1.2,1.3,1.2,2.7C62.1,39,62.1,39.6,62.1,40.2z"/>
		<g>
			<path class="st0" d="M52.6,49c-1.9,0-3.8,0-3.8,0c-2.3,0-4.1,1.6-4.1,3.5c0,2,1.9,3.6,4.1,3.6c0,0,1.9,0,3.8,0
				c2.3,0,4.1-1.6,4.1-3.6C56.8,50.6,54.9,49.1,52.6,49z M51.3,55.2L51.3,55.2c-0.2,0-0.7,0-1.2,0c-1.3,0-2.7-1-2.7-2.6
				s1.4-2.5,2.7-2.5c0,0,0.7,0,1.2,0c1.3,0,2.7,0.9,2.7,2.5C54.1,54.2,52.6,55.2,51.3,55.2z"/>
			<path class="st0" d="M76.9,56c0,0,2.2,0,2.3,0c0-0.1,0-3.4,0-3.4c0-2-1.8-3.5-4-3.5h-5.9c-0.1,0-0.3,0-0.3,0.3v6.4
				c0,0.2,0.1,0.3,0.2,0.3c0,0,2.4,0,2.5,0c0-0.1,0-5.4,0-5.4c0-0.2,0.2-0.4,0.3-0.4h2.7c0.7,0,1.9,0.7,1.9,2.2v3.3
				C76.6,55.8,76.6,56,76.9,56z"/>
			<path class="st0" d="M27.8,50.5c0,0,3.5,0,3.6,0c0-0.1,0-1.1,0-1.1c0-0.2-0.1-0.3-0.3-0.3H21c-0.2,0-0.3,0.1-0.3,0.3
				c0,0,0,1,0,1.1c0.1,0,2.4,0,2.4,0c0.9,0,1.5,0.8,1.5,1.5v3.8c0,0.1,0.1,0.3,0.3,0.3c0,0,2.4,0,2.5,0c0-0.1,0-5.2,0-5.2
				C27.4,50.7,27.6,50.5,27.8,50.5z"/>
			<path class="st0" d="M16.6,55.8c0,0.2,0.1,0.3,0.3,0.3H17l0,0c0.1,0,0.3,0,1.1,0c0,0,1.1,0,1.2,0c0-0.1,0-6.7,0-6.7
				c0-0.1-0.1-0.3-0.3-0.3h-2.2c-0.1,0-0.3,0.1-0.3,0.3L16.6,55.8L16.6,55.8z"/>
			<path class="st0" d="M40.9,56h2.7c0-1.7-1.8-2.4-2-2.4l0,0v-0.1l0,0c1.2-0.3,2-1.1,2-2.2c0-1.1-1-2.2-2.7-2.2h-6.5
				c-0.8,0-1.4,0.6-1.4,1.4v5.2c0,0.2,0.1,0.3,0.3,0.3c0,0,2.4,0,2.5,0c0-0.1,0-2.5,0-2.5h2.3C40,53.6,40.8,55.1,40.9,56z
				 M35.6,52.4V51c0-0.4,0.3-0.6,0.7-0.6h3.6c0.5,0,1,0.5,1,1c0,0.6-0.5,1-1,1H35.6z"/>
			<path class="st0" d="M12.5,51.5c0,0,2.5,0,2.6,0C14.5,50,13,49,11.1,49h-0.8c-1.3,0-1.9,0-3,0c-1.2,0-2.1,0.3-2.9,1
				s-1.2,1.6-1.2,2.5c0,2,1.8,3.5,4.1,3.6c1.6,0.1,1.8,0.1,3.9,0c1.9-0.1,3.3-0.9,3.9-2.5c-0.1,0-2.6,0-2.6,0c-0.1,0-0.2,0-0.2,0.1
				c-0.5,0.8-1.4,1.3-2.4,1.3l0,0c-0.5,0-1.2,0-1.2,0C7.4,55,6,54,6,52.4l0,0C5.9,51,7.3,50,8.7,50c0.2,0,0.7,0,1.2,0
				c1,0,1.9,0.5,2.4,1.3C12.3,51.4,12.3,51.5,12.5,51.5z"/>
			<path class="st0" d="M67.5,54.8c-0.1,0-6.4,0-6.4,0c-0.2,0-0.4-0.1-0.4-0.4v-1.3h5.5c0-0.1,0-1.1,0-1.2c-0.1,0-5.5,0-5.5,0v-1.2
				c0,0,0-0.1,0.1-0.2c0.1-0.1,0.2-0.1,0.3-0.1c0,0,6.3,0,6.4,0c0-0.1,0-1,0-1c0-0.1,0-0.1-0.1-0.2c-0.1-0.1-0.2-0.1-0.2-0.1h-8.9
				c0,0-0.3,0-0.3,0.3v5.2c0,0.7,0.5,1.4,1.4,1.4h7.8c0.1,0,0.1,0,0.2-0.1s0.1-0.1,0.1-0.2C67.5,55.8,67.5,54.9,67.5,54.8z"/>
			<path class="st0" d="M65.5,46.6c-0.3-0.2-0.6-0.2-0.9-0.2s-0.7,0.1-0.9,0.2C63.4,46.8,63.3,47,63,47s-0.5-0.2-0.7-0.4
				c-0.3-0.2-0.6-0.2-0.9-0.2c-0.4,0-0.7,0.1-0.9,0.2c-0.3,0.2-0.4,0.3-0.4,0.6c0,0.2,0.1,0.4,0.4,0.6c0.3,0.2,0.6,0.2,0.9,0.2
				c0.4,0,0.7-0.1,0.9-0.2c0.2-0.1,0.5-0.4,0.8-0.4s0.5,0.2,0.7,0.4c0.2,0.1,0.6,0.2,0.9,0.2c0.4,0,0.7-0.1,1-0.2s0.4-0.3,0.4-0.6
				C65.9,47,65.8,46.8,65.5,46.6z"/>
		</g>
		<path class="st0" d="M61.9,19.3C61.3,18.7,46.5,2.5,41.2,2.5S21.1,18.7,20.5,19.3l0,0c0,0.1-1.5,1.7-1.5,3.7c0,1.5,0.1,3,0.1,3
			c0,0.1,0,0.7,0.4,0.9c0.1,0,0.1,0,0.2,0s0.3-0.1,0.4-0.2c0.2-0.1,15.2-13.3,21.1-13.3s20.9,13.2,21.1,13.3
			c0.2,0.1,0.3,0.2,0.4,0.2c0.1,0,0.1,0,0.2,0c0.4-0.2,0.4-0.8,0.4-0.9c0,0,0.1-1.5,0.1-3C63.4,21,62,19.4,61.9,19.3z M62.1,24.8
			c-3.9-3.3-15.4-12.7-20.9-12.7s-17,9.4-20.9,12.7c0-0.8,0-1.3,0-1.9c0,0-0.1-1.1,0.9-2.3C29.6,13,38.4,9.3,38.7,9.2
			c2.6-1.1,2.5-0.9,2.5-5.3c0,0,0.1,0,0.2,0c3.7,0.3,13.6,9.9,19.5,16.4c0,0,1.2,1.3,1.2,2.7C62.1,23.6,62.1,24.3,62.1,24.8z"/>
	</g>
</g>
</svg>
